<svg id="Layer_1" enable-background="new 0 0 512 512" height="512" viewBox="0 0 512 512" width="512" xmlns="http://www.w3.org/2000/svg"><g><path d="m304.2 497h-96.4c-8.284 0-15-6.716-15-15v-130.667h-49.267c-43.708 0-79.267-35.559-79.267-79.267v-96.399c0-26.033 21.049-47.134 47.134-47.134 25.989 0 47.133 21.145 47.133 47.134v81.399h34.267v-193.866c0-34.977 28.304-63.2 63.2-63.2 34.849 0 63.2 28.352 63.2 63.2v113.533h34.267v-49.267c0-26.032 21.048-47.134 47.133-47.134 25.989 0 47.134 21.145 47.134 47.134v64.267c0 43.708-35.559 79.267-79.267 79.267h-49.267v211c0 8.284-6.716 15-15 15z" fill="#87e752"/><path d="m319.2 482v-211h49.267c43.708 0 79.267-35.559 79.267-79.267v-64.267c0-25.989-21.145-47.134-47.134-47.134-26.085 0-47.133 21.102-47.133 47.134v49.267h-34.267v-113.533c0-34.848-28.351-63.2-63.2-63.2v497h48.2c8.284 0 15-6.716 15-15z" fill="#4ec95f"/><path d="m368.467 512h-224.934c-8.284 0-15-6.716-15-15s6.716-15 15-15h224.934c8.284 0 15 6.716 15 15s-6.716 15-15 15z" fill="#fadc5c"/><path d="m383.467 497c0-8.284-6.716-15-15-15h-112.467v30h112.467c8.284 0 15-6.716 15-15z" fill="#fdb442"/></g></svg>